<?xml version="1.0" encoding="UTF-8" standalone="no"?>
<!DOCTYPE svg PUBLIC "-//W3C//DTD SVG 1.1//EN"
 "http://www.w3.org/Graphics/SVG/1.1/DTD/svg11.dtd">
<!-- Generated by graphviz version 2.43.0 (0)
 -->
<!-- Title: %3 Pages: 1 -->
<svg width="832pt" height="1129pt"
 viewBox="0.00 0.00 832.00 1129.00" xmlns="http://www.w3.org/2000/svg" xmlns:xlink="http://www.w3.org/1999/xlink">
<g id="graph0" class="graph" transform="scale(1 1) rotate(0) translate(4 1125)">
<title>%3</title>
<polygon fill="white" stroke="transparent" points="-4,4 -4,-1125 828,-1125 828,4 -4,4"/>
<text text-anchor="start" x="267" y="-11.8" font-family="Arial" font-size="34.00">System Landscape</text>
<g id="clust1" class="cluster">
<title>cluster_group_Services tierces parties</title>
<polygon fill="none" stroke="#cccccc" points="8,-64 8,-348 816,-348 816,-64 8,-64"/>
<text text-anchor="start" x="287" y="-92.8" font-family="Arial" font-size="24.00" fill="#cccccc">Services tierces parties</text>
<text text-anchor="start" x="380" y="-72.8" font-family="Arial" font-size="19.00" fill="#cccccc">[Group]</text>
</g>
<!-- 6 -->
<g id="6" class="node">
<title>6</title>
<polygon fill="#cccccc" stroke="#8e8e8e" points="397.5,-323 32.5,-323 32.5,-164 397.5,-164 397.5,-323"/>
<text text-anchor="start" x="82.5" y="-274.8" font-family="Arial" font-size="34.00" fill="#ffffff">Base de données</text>
<text text-anchor="start" x="138" y="-252.8" font-family="Arial" font-size="19.00" fill="#ffffff">[Software System]</text>
<text text-anchor="start" x="61.5" y="-215.8" font-family="Arial" font-size="24.00" fill="#ffffff">Catalogue de vélos, bons de</text>
<text text-anchor="start" x="128.5" y="-191.8" font-family="Arial" font-size="24.00" fill="#ffffff">commande, etc.</text>
</g>
<!-- 7 -->
<g id="7" class="node">
<title>7</title>
<polygon fill="#cccccc" stroke="#8e8e8e" points="790.5,-311 469.5,-311 469.5,-176 790.5,-176 790.5,-311"/>
<text text-anchor="start" x="498.5" y="-262.8" font-family="Arial" font-size="34.00" fill="#ffffff">Service paiement</text>
<text text-anchor="start" x="553" y="-240.8" font-family="Arial" font-size="19.00" fill="#ffffff">[Software System]</text>
<text text-anchor="start" x="503.5" y="-203.8" font-family="Arial" font-size="24.00" fill="#ffffff">Carte Visa, Paypal, etc.</text>
</g>
<!-- 1 -->
<g id="1" class="node">
<title>1</title>
<polygon fill="#08427b" stroke="#052e56" points="588.5,-1121 255.5,-1121 255.5,-962 588.5,-962 588.5,-1121"/>
<text text-anchor="start" x="385.5" y="-1072.8" font-family="Arial" font-size="34.00" fill="#ffffff">User</text>
<text text-anchor="start" x="386.5" y="-1050.8" font-family="Arial" font-size="19.00" fill="#ffffff">[Person]</text>
<text text-anchor="start" x="284.5" y="-1013.8" font-family="Arial" font-size="24.00" fill="#ffffff">Un utilisateur cherchant à</text>
<text text-anchor="start" x="335.5" y="-989.8" font-family="Arial" font-size="24.00" fill="#ffffff">acheter un vélo.</text>
</g>
<!-- 2 -->
<g id="2" class="node">
<title>2</title>
<polygon fill="#cccccc" stroke="#8e8e8e" points="601.5,-864 242.5,-864 242.5,-671 601.5,-671 601.5,-864"/>
<text text-anchor="start" x="271.5" y="-815.8" font-family="Arial" font-size="34.00" fill="#ffffff">Boutique de vélo en</text>
<text text-anchor="start" x="386" y="-781.8" font-family="Arial" font-size="34.00" fill="#ffffff">ligne</text>
<text text-anchor="start" x="345" y="-759.8" font-family="Arial" font-size="19.00" fill="#ffffff">[Software System]</text>
<text text-anchor="start" x="290.5" y="-722.8" font-family="Arial" font-size="24.00" fill="#ffffff">Navigateur web: Firefox,</text>
<text text-anchor="start" x="375" y="-698.8" font-family="Arial" font-size="24.00" fill="#ffffff">Chrome.</text>
</g>
<!-- 1&#45;&gt;2 -->
<g id="4" class="edge">
<title>1&#45;&gt;2</title>
<path fill="none" stroke="#707070" stroke-dasharray="5,2" d="M422,-961.83C422,-934.6 422,-903.62 422,-874.56"/>
<polygon fill="#707070" stroke="#707070" points="425.5,-874.37 422,-864.37 418.5,-874.37 425.5,-874.37"/>
<text text-anchor="start" x="422" y="-906.8" font-family="Arial" font-size="24.00" fill="#707070">Uses</text>
</g>
<!-- 3 -->
<g id="3" class="node">
<title>3</title>
<polygon fill="#1168bd" stroke="#0b4884" points="587,-556 257,-556 257,-421 587,-421 587,-556"/>
<text text-anchor="start" x="343.5" y="-507.8" font-family="Arial" font-size="34.00" fill="#ffffff">Bike Store</text>
<text text-anchor="start" x="345" y="-485.8" font-family="Arial" font-size="19.00" fill="#ffffff">[Software System]</text>
<text text-anchor="start" x="286" y="-448.8" font-family="Arial" font-size="24.00" fill="#ffffff">Service de vente de vélo.</text>
</g>
<!-- 2&#45;&gt;3 -->
<g id="5" class="edge">
<title>2&#45;&gt;3</title>
<path fill="none" stroke="#707070" stroke-dasharray="5,2" d="M422,-670.78C422,-636.78 422,-598.95 422,-566.69"/>
<polygon fill="#707070" stroke="#707070" points="425.5,-566.42 422,-556.42 418.5,-566.42 425.5,-566.42"/>
<text text-anchor="start" x="437.5" y="-616.8" font-family="Arial" font-size="24.00" fill="#707070">Call API</text>
<text text-anchor="start" x="422" y="-596.8" font-family="Arial" font-size="19.00" fill="#707070">[HTTP/JSON]</text>
</g>
<!-- 3&#45;&gt;6 -->
<g id="8" class="edge">
<title>3&#45;&gt;6</title>
<path fill="none" stroke="#707070" stroke-dasharray="5,2" d="M365.16,-420.78C341.54,-393.05 313.82,-360.5 288.66,-330.98"/>
<polygon fill="#707070" stroke="#707070" points="291.14,-328.48 281.99,-323.14 285.81,-333.02 291.14,-328.48"/>
<text text-anchor="start" x="330" y="-365.8" font-family="Arial" font-size="24.00" fill="#707070">Uses</text>
</g>
<!-- 3&#45;&gt;7 -->
<g id="9" class="edge">
<title>3&#45;&gt;7</title>
<path fill="none" stroke="#707070" stroke-dasharray="5,2" d="M479.11,-420.78C506.17,-389.17 538.58,-351.31 566.41,-318.79"/>
<polygon fill="#707070" stroke="#707070" points="569.17,-320.95 573.02,-311.07 563.85,-316.39 569.17,-320.95"/>
<text text-anchor="start" x="526" y="-365.8" font-family="Arial" font-size="24.00" fill="#707070">Uses</text>
</g>
</g>
</svg>
